<svg width="28" height="28" viewBox="0 0 28 28" fill="none" xmlns="http://www.w3.org/2000/svg">
<g clip-path="url(#clip0_75_2296)">
<path d="M9.75402 0.921574C6.95639 1.8921 4.54371 3.73419 2.87038 6.17727C1.19704 8.62035 0.351251 11.5356 0.457238 14.4949C0.563224 17.4542 1.6154 20.3016 3.45922 22.6187C5.30304 24.9358 7.84131 26.6006 10.7012 27.3685C13.0198 27.9667 15.449 27.993 17.78 27.445C19.8916 26.9707 21.8439 25.9561 23.4456 24.5006C25.1126 22.9395 26.3227 20.9536 26.9456 18.7563C27.6227 16.3668 27.7431 13.8539 27.2978 11.4106H14.2778V16.8116h11.8181C21.6674 17.673 21.3444 18.4951 20.8686 19.2288C20.3928 19.9625 19.7738 20.5927 19.0487 21.0816C18.128 21.6906 17.09 22.1005 16.0015 22.2847C14.9098 22.4877 13.7901 22.4877 12.6984 22.2847C11.5919 22.0559 10.5452 21.5993 9.62496 20.9438C8.14653 19.8972 7.03644 18.4105 6.45308 16.6956C5.85987 14.9487 5.85987 13.0548 6.45308 11.3078C6.86833 10.0833 7.55478 8.96837 8.46121 8.04626C9.4985 6.97165 10.8117 6.20351 12.2569 5.82612C13.702 5.44873 15.2231 5.47667 16.6534 5.90689C17.7707 6.24987 18.7924 6.84913 19.6371 7.65689C20.4874 6.81105 21.3361 5.96303 22.1834 5.11282C22.6209 4.65564 23.0978 4.22032 23.5287 3.7522C22.2393 2.5523 20.7258 1.61864 19.075 1.0047C16.0687 -0.0868855 12.7793 -0.116221 9.75402 0.921574Z" fill="white"/>
<path d="M9.75407 0.920684C12.7791 -0.117816 16.0685 -0.0892531 19.075 1.00162C20.7262 1.61973 22.239 2.55789 23.5266 3.76225C23.0891 4.23037 22.6275 4.66787 22.1813 5.12287C21.3325 5.97016 20.4845 6.81454 19.6372 7.656C18.7925 6.84824 17.7708 6.24898 16.6534 5.906C15.2236 5.47427 13.7025 5.44471 12.2571 5.82056C10.8116 6.1964 9.4975 6.96313 8.45907 8.03662C7.55264 8.95873 6.86619 10.0737 6.45095 11.2982L1.91626 7.78725C3.5394 4.56847 6.34977 2.10636 9.75407 0.920684Z" fill="#E33629"/>
<path d="M0.713138 11.2652C0.956872 10.0573 1.36152 8.88748 1.91626 7.78711L6.45095 11.3068C5.85773 13.0537 5.85773 14.9477 6.45095 16.6946C4.94012 17.8613 3.42856 19.0338 1.91626 20.2121C0.52753 17.4478 0.103991 14.2982 0.713138 11.2652Z" fill="#F8BD00"/>
<path d="M14.2778 11.4082h17.2978C27.7432 13.8515 27.6227 16.3644 26.9456 18.7538C26.3227 20.9511 25.1127 22.9371 23.4456 24.4982C21.9822 23.3563 20.5122 22.2232 19.0488 21.0813C19.7743 20.5919 20.3936 19.9611 20.8694 19.2266C21.3453 18.4921 21.668 17.6691 21.8181 16.807H14.2778C14.2756 15.0088 14.2778 13.2085 14.2778 11.4082Z" fill="#587DBD"/>
<path d="M1.91406 20.2128C3.42635 19.0461 4.93792 17.8736 6.44875 16.6953C7.03327 18.4107 8.14495 19.8976 9.625 20.9434C10.5481 21.5959 11.5971 22.0488 12.705 22.2734C13.7967 22.4764 14.9164 22.4764 16.0081 22.2734C17.0966 22.0892 18.1346 21.6794 19.0553 21.0703C20.5188 22.2122 21.9888 23.3453 23.4522 24.4872C21.8507 25.9435 19.8984 26.9588 17.7866 27.4338C15.4556 27.9817 13.0264 27.9555 10.7078 27.3572C8.87404 26.8676 7.16117 26.0044 5.67656 24.8219C4.1052 23.5743 2.82178 22.0021 1.91406 20.2128Z" fill="#319F43"/>
</g>
<defs>
<clipPath id="clip0_75_2296">
<rect width="28" height="28" fill="white"/>
</clipPath>
</defs>
</svg>
