<svg width="36" height="36" viewBox="0 0 36 36" fill="none" xmlns="http://www.w3.org/2000/svg">
<path d="M33.9137 11.0039L32.9681 9.58555V2.51613C32.9681 2.23123 32.7374 2 32.452 2H24.7101C24.4246 2 24.1939 2.23123 24.1939 2.51613V9.58555L21.1839 14.1006C21.0713 14.2694 21.0677 14.4883 21.1756 14.6601L23.7563 18.7892C23.8507 18.9404 24.0159 19.0323 24.1939 19.0323H24.7101V26.2581C24.7101 26.4542 24.7503 26.64 24.8174 26.8129L3.64786 22.655C3.36864 22.6003 3.09715 22.7819 3.04193 23.0622C2.98722 23.3419 3.16941 23.6129 3.44915 23.6681L16.5965 26.2508C16.371 26.4397 16.1815 26.6761 16.0443 26.9512L13.9255 31.1892C13.9235 31.1938 13.9245 31.199 13.9224 31.2031C13.8915 31.2692 13.8713 31.3414 13.8713 31.4194V33.4839C13.8713 33.7693 14.1021 34 14.3875 34H21.6133C21.8987 34 22.1294 33.7693 22.1294 33.4839V31.4194C22.1294 31.3394 22.1108 31.2599 22.0752 31.1886L19.9565 26.9507C19.9483 26.9347 19.9379 26.9208 19.9297 26.9048L32.3534 29.345C32.3859 29.3517 32.42 29.3548 32.4525 29.3548C32.6946 29.3548 32.9103 29.1845 32.9583 28.9378C33.013 28.6581 32.8308 28.3871 32.5511 28.3319L27.3821 27.3166C27.6437 27.0395 27.8068 26.6684 27.8068 26.2581V22.0341C27.9689 22.0919 28.1413 22.129 28.323 22.129C28.7209 22.129 29.0806 21.9737 29.3552 21.7265C29.6298 21.9742 29.9895 22.129 30.3875 22.129C30.7854 22.129 31.1452 21.9737 31.4197 21.7265C31.6943 21.9742 32.0541 22.129 32.452 22.129C33.3057 22.129 34.0004 21.4343 34.0004 20.5806V18V17.4839V11.2903C34.0004 11.1886 33.9699 11.0885 33.9137 11.0039ZM21.0972 31.5412V32.9677H14.9036V31.9355H17.4843C17.7697 31.9355 18.0004 31.7048 18.0004 31.4194C18.0004 31.1339 17.7697 30.9032 17.4843 30.9032H15.2226L16.9681 27.4121C17.1648 27.0188 17.5601 26.7742 18.0004 26.7742C18.4406 26.7742 18.836 27.0188 19.0326 27.4121L21.0972 31.5412ZM22.2275 14.3964L25.1395 10.0284C25.1957 9.94374 25.2262 9.84361 25.2262 9.74194V5.09677H28.323C28.6084 5.09677 28.8391 4.86555 28.8391 4.58065C28.8391 4.29574 28.6084 4.06452 28.323 4.06452H25.2262V3.03226H31.9359V9.74194C31.9359 9.84361 31.9663 9.94374 32.0226 10.0284L32.9681 11.4467V16.031C32.8061 15.9726 32.6337 15.9355 32.452 15.9355C32.0541 15.9355 31.6943 16.0908 31.4197 16.3381C31.1452 16.0903 30.7854 15.9355 30.3875 15.9355C30.1175 15.9355 29.8672 16.0108 29.6463 16.1332C29.3996 15.6588 28.9666 15.2877 28.4298 15.1345L25.8837 14.4072C25.6117 14.3288 25.3243 14.4872 25.2458 14.7618C25.1679 15.0359 25.3263 15.3218 25.6009 15.3997L28.147 16.127C28.5542 16.2436 28.8391 16.6209 28.8391 17.0452C28.8391 17.5716 28.4107 18 27.8837 18H24.4799L22.2275 14.3964ZM26.7746 19.0323V20.5806V26.2581C26.7746 26.543 26.5434 26.7742 26.2584 26.7742C25.9735 26.7742 25.7423 26.543 25.7423 26.2581V19.0323H26.7746ZM28.323 21.0968C28.0381 21.0968 27.8068 20.8655 27.8068 20.5806V19.0323H27.8837C28.2316 19.0323 28.5542 18.9347 28.8391 18.7768V20.5806C28.8391 20.8655 28.6079 21.0968 28.323 21.0968ZM30.3875 21.0968C30.1026 21.0968 29.8713 20.8655 29.8713 20.5806V17.4839C29.8713 17.1995 30.1026 16.9677 30.3875 16.9677C30.6724 16.9677 30.9036 17.1995 30.9036 17.4839V20.5806C30.9036 20.8655 30.6724 21.0968 30.3875 21.0968ZM32.9681 20.5806C32.9681 20.8655 32.7369 21.0968 32.452 21.0968C32.1671 21.0968 31.9359 20.8655 31.9359 20.5806V17.4839C31.9359 17.1995 32.1671 16.9677 32.452 16.9677C32.7369 16.9677 32.9681 17.1995 32.9681 17.4839V18V20.5806Z" fill="#F5C448" stroke="#F5C448" stroke-width="0.5"/>
<path d="M30.3872 5.09671C30.6723 5.09671 30.9034 4.86563 30.9034 4.58058C30.9034 4.29553 30.6723 4.06445 30.3872 4.06445C30.1022 4.06445 29.8711 4.29553 29.8711 4.58058C29.8711 4.86563 30.1022 5.09671 30.3872 5.09671Z" fill="#F5C448"/>
<path d="M11.2905 9.22562C11.5756 9.22562 11.8067 8.99454 11.8067 8.70949C11.8067 8.42444 11.5756 8.19336 11.2905 8.19336C11.0055 8.19336 10.7744 8.42444 10.7744 8.70949C10.7744 8.99454 11.0055 9.22562 11.2905 9.22562Z" fill="#F5C448" stroke="#F5C448" stroke-width="0.5"/>
<path d="M4.06496 9.22562C4.35001 9.22562 4.58109 8.99454 4.58109 8.70949C4.58109 8.42444 4.35001 8.19336 4.06496 8.19336C3.77991 8.19336 3.54883 8.42444 3.54883 8.70949C3.54883 8.99454 3.77991 9.22562 4.06496 9.22562Z" fill="#F5C448"/>
<path d="M7.67742 14.388C8.85987 14.388 9.99639 14.0237 10.9641 13.3351C11.1964 13.17 11.2506 12.8474 11.0849 12.6151C10.9197 12.3834 10.5982 12.3292 10.3649 12.4938C9.57368 13.058 8.64413 13.3558 7.67742 13.3558C5.11587 13.3558 3.03226 11.2717 3.03226 8.71062C3.03226 6.14959 5.11587 4.06546 7.67742 4.06546C10.239 4.06546 12.3226 6.14959 12.3226 8.71062C12.3226 9.67733 12.0248 10.6069 11.4606 11.3986C11.2955 11.6309 11.3492 11.9529 11.5814 12.1186C11.8132 12.2843 12.1352 12.2291 12.3014 11.9978C12.9905 11.0296 13.3548 9.89307 13.3548 8.71062C13.3548 5.5803 10.8077 3.0332 7.67742 3.0332C4.5471 3.0332 2 5.5803 2 8.71062C2 11.8409 4.5471 14.388 7.67742 14.388Z" fill="#F5C448" stroke="#F5C448" stroke-width="0.5"/>
<path d="M7.16167 7.16217H8.19393C8.47883 7.16217 8.71006 7.39391 8.71006 7.6783C8.71006 7.9632 8.94077 8.19443 9.22618 8.19443C9.5116 8.19443 9.74231 7.9632 9.74231 7.6783C9.74231 6.82462 9.0476 6.12991 8.19393 6.12991V5.61379C8.19393 5.32888 7.96322 5.09766 7.6778 5.09766C7.39238 5.09766 7.16167 5.32888 7.16167 5.61379V6.12991C6.30799 6.12991 5.61328 6.82462 5.61328 7.6783C5.61328 8.53198 6.30799 9.22669 7.16167 9.22669H8.19393C8.47883 9.22669 8.71006 9.45843 8.71006 9.74282C8.71006 10.0272 8.47883 10.2589 8.19393 10.2589H7.16167C6.87677 10.2589 6.64554 10.0272 6.64554 9.74282C6.64554 9.45791 6.41483 9.22669 6.12941 9.22669C5.84399 9.22669 5.61328 9.45791 5.61328 9.74282C5.61328 10.5965 6.30799 11.2912 7.16167 11.2912V11.8073C7.16167 12.0922 7.39238 12.3235 7.6778 12.3235C7.96322 12.3235 8.19393 12.0922 8.19393 11.8073V11.2912C9.0476 11.2912 9.74231 10.5965 9.74231 9.74282C9.74231 8.88914 9.0476 8.19443 8.19393 8.19443H7.16167C6.87677 8.19443 6.64554 7.96269 6.64554 7.6783C6.64554 7.39391 6.87677 7.16217 7.16167 7.16217Z" fill="#F5C448"/>
<path d="M19.5484 31.9346C19.8334 31.9346 20.0645 31.7035 20.0645 31.4185C20.0645 31.1334 19.8334 30.9023 19.5484 30.9023C19.2633 30.9023 19.0322 31.1334 19.0322 31.4185C19.0322 31.7035 19.2633 31.9346 19.5484 31.9346Z" fill="#F5C448"/>
<path d="M8.19339 15.9361C8.19339 15.6511 7.96268 15.4199 7.67726 15.4199C7.39184 15.4199 7.16113 15.6511 7.16113 15.9361V19.0328C7.16113 19.3182 7.39184 19.549 7.67726 19.549C7.96268 19.549 8.19339 19.3182 8.19339 19.0328V15.9361Z" fill="#F5C448" stroke="#F5C448" stroke-width="0.5"/>
<path d="M7.67726 21.6123C7.96231 21.6123 8.19339 21.3813 8.19339 21.0962C8.19339 20.8112 7.96231 20.5801 7.67726 20.5801C7.39221 20.5801 7.16113 20.8112 7.16113 21.0962C7.16113 21.3813 7.39221 21.6123 7.67726 21.6123Z" fill="#F5C448"/>
<path d="M11.2901 15.9361C11.2901 15.6511 11.0594 15.4199 10.7739 15.4199C10.4885 15.4199 10.2578 15.6511 10.2578 15.9361V18.0006C10.2578 18.2855 10.4885 18.5167 10.7739 18.5167C11.0594 18.5167 11.2901 18.2855 11.2901 18.0006V15.9361Z" fill="#F5C448" stroke="#F5C448" stroke-width="0.5"/>
<path d="M10.7739 20.5811C11.059 20.5811 11.2901 20.35 11.2901 20.065C11.2901 19.7799 11.059 19.5488 10.7739 19.5488C10.4889 19.5488 10.2578 19.7799 10.2578 20.065C10.2578 20.35 10.4889 20.5811 10.7739 20.5811Z" fill="#F5C448"/>
<path d="M5.09671 15.9361C5.09671 15.6511 4.866 15.4199 4.58058 15.4199C4.29516 15.4199 4.06445 15.6511 4.06445 15.9361V18.0006C4.06445 18.2855 4.29516 18.5167 4.58058 18.5167C4.866 18.5167 5.09671 18.2855 5.09671 18.0006V15.9361Z" fill="#F5C448" stroke="#F5C448" stroke-width="0.5"/>
<path d="M4.58058 20.5811C4.86563 20.5811 5.09671 20.35 5.09671 20.065C5.09671 19.7799 4.86563 19.5488 4.58058 19.5488C4.29553 19.5488 4.06445 19.7799 4.06445 20.065C4.06445 20.35 4.29553 20.5811 4.58058 20.5811Z" fill="#F5C448"/>
</svg>
