<svg width="36" height="36" viewBox="0 0 36 36" fill="none" xmlns="http://www.w3.org/2000/svg">
<path d="M18 14.0625C16.7762 14.0625 15.5799 13.6996 14.5624 13.0197C13.5449 12.3398 12.7518 11.3735 12.2835 10.2429C11.8152 9.11224 11.6926 7.86814 11.9314 6.66788C12.1701 5.46762 12.7594 4.36512 13.6248 3.49978C14.4901 2.63444 15.5926 2.04514 16.7929 1.80639C17.9931 1.56765 19.2372 1.69018 20.3679 2.1585C21.4985 2.62682 22.4648 3.41988 23.1447 4.43741C23.8246 5.45494 24.1875 6.65123 24.1875 7.875C24.1856 9.51546 23.5332 11.0882 22.3732 12.2482C21.2132 13.4082 19.6405 14.0606 18 14.0625ZM18 2.8125C16.9987 2.8125 16.02 3.10941 15.1874 3.66569C14.3549 4.22196 13.706 5.01262 13.3229 5.93767C12.9397 6.86272 12.8394 7.88062 13.0348 8.86265C13.2301 9.84468 13.7123 10.7467 14.4203 11.4547C15.1283 12.1627 16.0303 12.6449 17.0124 12.8402C17.9944 13.0356 19.0123 12.9353 19.9373 12.5521C20.8624 12.169 21.653 11.5201 22.2093 10.6876C22.7656 9.85505 23.0625 8.87627 23.0625 7.875C23.0609 6.53282 22.5271 5.24606 21.578 4.297C20.6289 3.34793 19.3422 2.81406 18 2.8125Z" fill="#F5C448" stroke="#F5C448" stroke-width="0.5"/>
<path d="M19.6875 9C19.687 8.5526 19.5091 8.12366 19.1927 7.8073C18.8763 7.49093 18.4474 7.31299 18 7.3125C17.9013 7.31244 17.8043 7.28639 17.7188 7.23695C17.6333 7.18752 17.5623 7.11645 17.513 7.03089C17.4637 6.94534 17.4378 6.8483 17.4378 6.74955C17.4379 6.6508 17.464 6.55381 17.5134 6.46833C17.5629 6.38285 17.634 6.31189 17.7195 6.2626C17.8051 6.2133 17.9022 6.1874 18.0009 6.1875C18.0997 6.1876 18.1966 6.2137 18.2821 6.26317C18.3676 6.31263 18.4385 6.38373 18.4878 6.46931C18.5626 6.59839 18.6856 6.69246 18.8298 6.73083C18.974 6.7692 19.1275 6.74873 19.2566 6.67391C19.3857 6.5991 19.4797 6.47607 19.5181 6.33189C19.5565 6.18772 19.536 6.0342 19.4612 5.90513C19.2578 5.56222 18.9393 5.30258 18.5625 5.1724V4.5C18.5625 4.35082 18.5032 4.20774 18.3978 4.10225C18.2923 3.99676 18.1492 3.9375 18 3.9375C17.8508 3.9375 17.7077 3.99676 17.6023 4.10225C17.4968 4.20774 17.4375 4.35082 17.4375 4.5V5.16615C17.0623 5.29806 16.7459 5.55855 16.5445 5.90144C16.343 6.24434 16.2695 6.64749 16.3368 7.03944C16.4042 7.43139 16.6082 7.78682 16.9127 8.04273C17.2171 8.29863 17.6023 8.43849 18 8.4375C18.0988 8.43756 18.1958 8.46361 18.2812 8.51305C18.3667 8.56248 18.4377 8.63355 18.487 8.71911C18.5363 8.80466 18.5623 8.9017 18.5622 9.00045C18.5621 9.0992 18.536 9.19619 18.4866 9.28167C18.4371 9.36715 18.366 9.43811 18.2805 9.4874C18.1949 9.5367 18.0979 9.5626 17.9991 9.5625C17.9004 9.5624 17.8034 9.5363 17.7179 9.48683C17.6324 9.43736 17.5615 9.36627 17.5122 9.28069C17.4374 9.15161 17.3144 9.05754 17.1702 9.01917C17.026 8.9808 16.8725 9.00127 16.7434 9.07609C16.6143 9.1509 16.5203 9.27393 16.4819 9.41811C16.4435 9.56228 16.464 9.7158 16.5388 9.84488C16.7422 10.1878 17.0607 10.4474 17.4375 10.5776V11.25C17.4375 11.3992 17.4968 11.5423 17.6023 11.6477C17.7077 11.7532 17.8508 11.8125 18 11.8125C18.1492 11.8125 18.2923 11.7532 18.3978 11.6477C18.5032 11.5423 18.5625 11.3992 18.5625 11.25V10.5838C18.8906 10.4683 19.1749 10.254 19.3763 9.97041C19.5777 9.68683 19.6864 9.34784 19.6875 9Z" fill="#F5C448"/>
<path d="M10.125 27H8.4375C8.28832 27 8.14524 26.9407 8.03975 26.8352C7.93426 26.7298 7.875 26.5867 7.875 26.4375C7.875 26.2883 7.93426 26.1452 8.03975 26.0398C8.14524 25.9343 8.28832 25.875 8.4375 25.875H10.125C10.2742 25.875 10.4173 25.9343 10.5227 26.0398C10.6282 26.1452 10.6875 26.2883 10.6875 26.4375C10.6875 26.5867 10.6282 26.7298 10.5227 26.8352C10.4173 26.9407 10.2742 27 10.125 27Z" fill="#F5C448" stroke="#F5C448" stroke-width="0.5"/>
<path d="M14.0625 27H12.375C12.2258 27 12.0827 26.9407 11.9773 26.8352C11.8718 26.7298 11.8125 26.5867 11.8125 26.4375C11.8125 26.2883 11.8718 26.1452 11.9773 26.0398C12.0827 25.9343 12.2258 25.875 12.375 25.875H14.0625C14.2117 25.875 14.3548 25.9343 14.4602 26.0398C14.5657 26.1452 14.625 26.2883 14.625 26.4375C14.625 26.5867 14.5657 26.7298 14.4602 26.8352C14.3548 26.9407 14.2117 27 14.0625 27Z" fill="#F5C448" stroke="#F5C448" stroke-width="0.5"/>
<path d="M18 27H16.3125C16.1633 27 16.0202 26.9407 15.9148 26.8352C15.8093 26.7298 15.75 26.5867 15.75 26.4375C15.75 26.2883 15.8093 26.1452 15.9148 26.0398C16.0202 25.9343 16.1633 25.875 16.3125 25.875H18C18.1492 25.875 18.2923 25.9343 18.3977 26.0398C18.5032 26.1452 18.5625 26.2883 18.5625 26.4375C18.5625 26.5867 18.5032 26.7298 18.3977 26.8352C18.2923 26.9407 18.1492 27 18 27Z" fill="#F5C448" stroke="#F5C448" stroke-width="0.5"/>
<path d="M21.9375 27h10.25C20.1008 27 19.9577 26.9407 19.8523 26.8352C19.7468 26.7298 19.6875 26.5867 19.6875 26.4375C19.6875 26.2883 19.7468 26.1452 19.8523 26.0398C19.9577 25.9343 20.1008 25.875 20.25 25.875h11.9375C22.0867 25.875 22.2298 25.9343 22.3352 26.0398C22.4407 26.1452 22.5 26.2883 22.5 26.4375C22.5 26.5867 22.4407 26.7298 22.3352 26.8352C22.2298 26.9407 22.0867 27 21.9375 27Z" fill="#F5C448" stroke="#F5C448" stroke-width="0.5"/>
<path d="M25.875 27h14.1875C24.0383 27 23.8952 26.9407 23.7898 26.8352C23.6843 26.7298 23.625 26.5867 23.625 26.4375C23.625 26.2883 23.6843 26.1452 23.7898 26.0398C23.8952 25.9343 24.0383 25.875 24.1875 25.875h15.875C26.0242 25.875 26.1673 25.9343 26.2727 26.0398C26.3782 26.1452 26.4375 26.2883 26.4375 26.4375C26.4375 26.5867 26.3782 26.7298 26.2727 26.8352C26.1673 26.9407 26.0242 27 25.875 27Z" fill="#F5C448" stroke="#F5C448" stroke-width="0.5"/>
<path d="M33.75 27h22.0625C31.9133 27 31.7702 26.9407 31.6648 26.8352C31.5593 26.7298 31.5 26.5867 31.5 26.4375C31.5 26.2883 31.5593 26.1452 31.6648 26.0398C31.7702 25.9343 31.9133 25.875 32.0625 25.875h23.75C33.8992 25.875 34.0423 25.9343 34.1477 26.0398C34.2532 26.1452 34.3125 26.2883 34.3125 26.4375C34.3125 26.5867 34.2532 26.7298 34.1477 26.8352C34.0423 26.9407 33.8992 27 33.75 27Z" fill="#F5C448" stroke="#F5C448" stroke-width="0.5"/>
<path d="M32.625 30.9375h20.289L29.6327 27h19.8125C29.9617 27 30.1048 26.9407 30.2102 26.8352C30.3157 26.7298 30.375 26.5867 30.375 26.4375C30.375 26.2883 30.3157 26.1452 30.2102 26.0398C30.1048 25.9343 29.9617 25.875 29.8125 25.875h19.4452L28.6798 21.2824C28.6667 21.2037 28.6369 21.1287 28.5925 21.0623C28.5481 20.996 28.4901 20.9398 28.4224 20.8976C28.3546 20.8554 28.2787 20.8281 28.1996 20.8175C28.1204 20.8069 28.04 20.8132 27.9635 20.8361L22.7096 22.4124L17.3208 15.407C17.2676 15.337 17.1985 15.2806 17.1193 15.2424C17.0401 15.2043 16.953 15.1855 16.8651 15.1875C16.7772 15.1891 16.6909 15.2112 16.6132 15.2522C16.5354 15.2931 16.4682 15.3516 16.4171 15.4232L14.0323 18.7622L9.43534 13.1438C9.38377 13.0808 9.31919 13.0298 9.24603 12.9942C9.17288 12.9586 9.09288 12.9393 9.01154 12.9375C8.93061 12.9388 8.85075 12.9561 8.77659 12.9885C8.70242 13.0209 8.63543 13.0677 8.5795 13.1262L5.0625 17.0828V3.375C5.0625 2.92745 4.88471 2.49822 4.56824 2.18176C4.25178 1.86529 3.82255 1.6875 3.375 1.6875C2.92745 1.6875 2.49822 1.86529 2.18176 2.18176C1.86529 2.49822 1.6875 2.92745 1.6875 3.375V32.625C1.68799 33.0724 1.86593 33.5013 2.1823 33.8177C2.49866 34.1341 2.9276 34.312 3.375 34.3125h22.625C33.0726 34.3125 33.5018 34.1347 33.8182 33.8182C34.1347 33.5018 34.3125 33.0726 34.3125 32.625C34.3125 32.1774 34.1347 31.7482 33.8182 31.4318C33.5018 31.1153 33.0726 30.9375 32.625 30.9375ZM5.0625 27H6.1875C6.33668 27 6.47976 26.9407 6.58525 26.8352C6.69074 26.7298 6.75 26.5867 6.75 26.4375C6.75 26.2883 6.69074 26.1452 6.58525 26.0398C6.47976 25.9343 6.33668 25.875 6.1875 25.875H5.0625V18.7766L8.98215 14.3666L13.6272 20.0437C13.6819 20.1106 13.7513 20.164 13.83 20.1997C13.9087 20.2355 13.9946 20.2526 14.081 20.2497C14.1674 20.2469 14.252 20.2242 14.3282 20.1834C14.4044 20.1425 14.4701 20.0847 14.5204 20.0143L16.8918 16.6943L22.0542 23.4055C22.1239 23.4956 22.2192 23.5626 22.3275 23.5975C22.4359 23.6325 22.5523 23.6338 22.6615 23.6014L27.6751 22.0974L28.3047 25.875h18.125C27.9758 25.875 27.8327 25.9343 27.7273 26.0398C27.6218 26.1452 27.5625 26.2883 27.5625 26.4375C27.5625 26.5867 27.6218 26.7298 27.7273 26.8352C27.8327 26.9407 27.9758 27 28.125 27h18.4923L29.1485 30.9375H5.0625V27ZM32.625 33.1875h2.375C3.22588 33.1873 3.08291 33.128 2.97747 33.0225C2.87202 32.9171 2.81269 32.7741 2.8125 32.625V3.375C2.8125 3.22582 2.87176 3.08274 2.97725 2.97725C3.08274 2.87176 3.22582 2.8125 3.375 2.8125C3.52418 2.8125 3.66726 2.87176 3.77275 2.97725C3.87824 3.08274 3.9375 3.22582 3.9375 3.375V31.5C3.9375 31.6492 3.99676 31.7923 4.10225 31.8977C4.20774 32.0032 4.35082 32.0625 4.5 32.0625h22.625C32.7742 32.0625 32.9173 32.1218 33.0227 32.2273C33.1282 32.3327 33.1875 32.4758 33.1875 32.625C33.1875 32.7742 33.1282 32.9173 33.0227 33.0227C32.9173 33.1282 32.7742 33.1875 32.625 33.1875Z" fill="#F5C448" stroke="#F5C448" stroke-width="0.5"/>
</svg>
