<svg width="36" height="36" viewBox="0 0 36 36" fill="none" xmlns="http://www.w3.org/2000/svg">
<path d="M8.11113 10.75L8.43688 10.3436C10.6674 7.56113 14.0882 5.77248 17.9275 5.75022C17.9801 5.74991 18.0326 5.74994 18.0852 5.75029L18.0853 5.75029C21.3532 5.77257 24.3175 7.07472 26.5011 9.17999C26.628 9.30216 26.752 9.42707 26.8734 9.55464C28.9267 11.7113 30.2021 14.6163 30.2486 17.8185C30.2506 17.9455 30.2505 18.0723 30.2485 18.1991L30.2485 18.1991C30.1978 21.375 28.9384 24.2574 26.9109 26.406L26.9109 26.406C26.7489 26.5777 26.5819 26.7447 26.41 26.9071L26.41 26.9071C24.2579 28.9398 21.3688 30.2013 18.1858 30.2486M8.11113 10.75L18.1858 30.2486M8.11113 10.75H8.63195H10.5C11.1903 10.75 11.75 11.3097 11.75 12C11.75 12.6904 11.1903 13.25 10.5 13.25H4.5H3.25M8.11113 10.75L3.25 13.25M18.1858 30.2486C18.0682 30.2505 17.9505 30.2505 17.8331 30.2489L17.833 30.2489C11.6602 30.1664 6.58988 25.5186 5.84439 19.5279C5.75521 18.8115 5.18351 18.25 4.5 18.25C3.8021 18.25 3.25742 18.8122 3.32366 19.4725L3.07493 19.4974L3.32366 19.4725C3.37355 19.9699 3.44855 20.463 3.54798 20.95C4.07084 23.5114 5.26919 25.9063 7.04301 27.8745L6.85729 28.0419L7.04301 27.8745C9.48471 30.584 12.8436 32.2926 16.4713 32.6705L16.4454 32.9192L16.4713 32.6705C20.0989 33.0485 23.7379 32.0691 26.6857 29.9214L26.8329 30.1235L26.6857 29.9214C29.6336 27.7736 31.6812 24.6099 32.4332 21.041C33.1851 17.4721 32.588 13.7512 30.7574 10.5966C28.9268 7.44207 25.9923 5.07763 22.5206 3.95982C19.0489 2.842 15.286 3.05011 11.9587 4.54395L11.8563 4.31588L11.9587 4.54395C9.66357 5.57439 7.68788 7.16621 6.2 9.14996L5.75 9.74993V8.99996V6C5.75 5.30965 5.19035 4.75 4.5 4.75C3.80965 4.75 3.25 5.30965 3.25 6V12V13.25M18.1858 30.2486L3.25 13.25" fill="#F5C448" stroke="#38423C" stroke-width="0.5"/>
</svg>
