<svg width="36" height="36" viewBox="0 0 36 36" fill="none" xmlns="http://www.w3.org/2000/svg">
<path d="M34.125 28.5h23.375V20.625C33.375 20.4187 33.2063 20.25 33 20.25h18.125C27.9188 20.25 27.75 20.4187 27.75 20.625V28.5h17V17.625C27 17.4187 26.8313 17.25 26.625 17.25h11.75C21.5438 17.25 21.375 17.4187 21.375 17.625V28.5h10.625V14.625C20.625 14.4187 20.4563 14.25 20.25 14.25H15.375C15.1688 14.25 15 14.4187 15 14.625V28.5C14.9963 28.1925 14.835 27.7838 14.2163 27.39C14.4713 27.1462 14.6213 26.8687 14.625 26.5537V24.5887C14.625 24.2963 14.4975 24.0225 14.25 23.775V9.375C14.25 9.16875 14.0813 9 13.875 9H9C8.79375 9 8.625 9.16875 8.625 9.375V13.2263C2.53875 11.925 -1.01625 19.6913 3.86625 23.4525C3.01875 24.0188 3.0675 24.3825 3.07125 25.0387C1.785 25.5187 1.50375 26.115 1.5 26.55V28.5075C1.5825 29.46 2.4525 29.8013 3.44625 30.1538C2.9775 33.54 15.1163 33.2475 15 30.4837V29.25C18.9263 29.25 24.2063 29.25 28.125 29.25C28.9313 29.25 33.4163 29.25 34.125 29.25C34.6125 29.2425 34.6238 28.5075 34.125 28.5ZM14.25 28.515C14.1375 29.0662 13.035 29.3888 12.3975 29.5575C12.8063 29.265 13.05 28.92 13.0538 28.5188V28.065C13.2225 28.0012 13.38 27.9375 13.5263 27.8625C14.055 28.1175 14.2538 28.3612 14.25 28.515ZM3.975 26.8313C3.87375 26.73 3.82125 26.6325 3.82125 26.5462V25.695C6.13125 27.0825 11.5613 27.0937 13.875 25.695V26.5537C13.8038 27.0075 13.02 27.2887 12.5288 27.4575C10.395 28.2563 5.1225 28.05 3.975 26.835V26.8313ZM9.375 9.75H13.5V23.2687C13.02 23.0325 12.4013 22.8375 11.655 22.695C14.3925 19.7137 13.0875 14.79 9.375 13.455V9.75ZM2.32125 18.8438C2.6175 12.1762 12.1125 12.2025 12.375 18.87C12.375 20.2125 11.8463 21.4725 10.8938 22.4213C7.78125 25.5713 2.28 23.2725 2.32125 18.8438ZM7.33125 24.6338C8.6775 24.6338 9.9525 24.1838 10.9838 23.3438C12.375 23.55 13.2038 23.8838 13.6238 24.2175C14.0963 24.6113 13.86 24.855 13.17 25.2262C12.21 25.6987 10.5712 25.98 8.83125 25.9762C7.08375 25.9762 5.47125 25.6912 4.515 25.2262C3.60375 24.75 3.5475 24.4312 4.5675 23.9175C5.38875 24.3712 6.33 24.63 7.33125 24.63V24.6338ZM3.07125 25.8525C3.07125 26.4075 2.985 27.0075 3.5025 27.4163C2.475 27.0562 1.545 26.5163 3.07125 25.8525ZM2.25 28.5112V27.66C3.59625 28.5 5.9625 28.7625 8.07375 28.6763C9.4725 28.7475 11.0888 28.62 12.3038 28.3013C12.48 29.1488 10.425 29.8688 7.28625 29.91C4.72875 29.8838 2.5275 29.3662 2.25 28.5112ZM9.2325 31.875C6.78 31.8713 4.1625 31.2825 4.19625 30.3525C5.34 30.6113 6.92625 30.7162 8.2575 30.63C10.395 30.7463 12.8588 30.495 14.25 29.625V30.4837C14.2463 31.0538 12.2888 31.8787 9.2325 31.8787V31.875ZM15.75 28.5V15H19.875V28.5H15.75ZM22.125 28.5V18h16.25V28.5h12.125ZM28.5 28.5V21h22.625V28.5h18.5Z" fill="#F5C448" stroke="#F5C448" stroke-width="0.5"/>
<path d="M17.4001 9.30083C17.4413 9.33083 17.4863 9.35333 17.5388 9.36458L24.1913 10.9396L30.6751 16.9883L29.7526 17.0371C29.2726 17.0671 29.2913 17.7796 29.7713 17.7871C29.7863 17.7871 31.6463 17.6896 31.6613 17.6896C31.8676 17.6783 32.0288 17.5021 32.0176 17.2958L31.9238 15.4246C31.9126 15.2183 31.7363 15.0571 31.5301 15.0683C31.3238 15.0796 31.1626 15.2558 31.1738 15.4621L31.2263 16.4783L24.6301 10.3208C24.5813 10.2758 24.5251 10.2458 24.4613 10.2308L17.7863 8.64833L11.2876 3.81833C10.8938 3.53333 10.4476 4.11833 10.8413 4.42208L17.4038 9.29708L17.4001 9.30083Z" fill="#F5C448" stroke="#F5C448" stroke-width="0.5"/>
<path d="M7.35027 23.0624C9.60402 23.1074 11.5953 21.1237 11.554 18.8699C11.6065 16.6087 9.61902 14.6137 7.36152 14.6549C5.03652 14.6549 3.15027 16.5299 3.14652 18.8474C3.09402 21.1124 5.08902 23.1112 7.35027 23.0624ZM3.89652 18.8474C3.88527 15.8024 7.67277 14.2462 9.79902 16.4212C11.134 17.7112 11.1303 20.0249 9.78777 21.3074C7.65402 23.4749 3.85902 21.8887 3.89652 18.8512V18.8474Z" fill="#F5C448"/>
<path d="M7.34234 21.1978C7.58984 21.1978 7.74734 20.9728 7.71734 20.7403C8.17859 20.5941 8.51234 20.1328 8.50484 19.6491C8.48984 18.8878 7.85234 18.7303 7.37234 18.4491C7.01234 18.2616 6.93734 18.1941 6.93734 18.0703C6.93359 17.8491 7.12859 17.6541 7.34984 17.6616C7.57109 17.6578 7.76609 17.8528 7.75859 18.0741C7.75859 18.2803 7.92734 18.4491 8.13359 18.4491C8.33984 18.4491 8.50859 18.2803 8.50859 18.0741C8.51609 17.5866 8.18609 17.1253 7.72484 16.9791C7.78484 16.3716 6.91484 16.3716 6.97484 16.9791C6.51734 17.1366 6.18734 17.5641 6.18734 18.0703C6.18734 18.6778 6.67109 18.9291 7.02734 19.1166L7.33484 19.2778C7.71734 19.4766 7.75484 19.5253 7.75484 19.6453C7.74359 20.1853 6.94109 20.1853 6.93359 19.6453C6.93359 19.4391 6.76484 19.2703 6.55859 19.2703C6.35234 19.2703 6.18359 19.4391 6.18359 19.6453C6.18359 20.1553 6.50984 20.5828 6.96734 20.7403C6.93734 20.9728 7.09484 21.2053 7.34234 21.2016V21.1978Z" fill="#F5C448"/>
</svg>
