<svg width="36" height="36" viewBox="0 0 36 36" fill="none" xmlns="http://www.w3.org/2000/svg">
<path d="M35.3412 17.0688C35.3412 17.062 35.3398 17.0566 35.3385 17.0498C35.3358 17.0322 35.3344 17.0159 35.3304 16.9983C35.329 16.9915 35.3263 16.9848 35.3249 16.978C35.3209 16.9617 35.3182 16.9468 35.3127 16.9306C35.3114 16.9251 35.3087 16.9197 35.3073 16.913C35.3019 16.8967 35.2965 16.8804 35.2897 16.8642C35.2884 16.8615 35.287 16.8574 35.2856 16.8547C35.2775 16.8371 35.2694 16.8181 35.2599 16.8005V16.7991C35.2274 16.7409 35.1881 16.6853 35.1379 16.6352L32.9765 14.4728C32.6987 14.1951 32.2488 14.1951 31.971 14.4728C31.6932 14.7506 31.6932 15.2004 31.971 15.4781L32.9196 16.4265h20.4343V11.2713C30.4343 10.8784 30.1159 10.56 29.7229 10.56h17.5954L27.594 5.53872C27.594 5.14581 27.2756 4.8274 26.8826 4.8274C26.4896 4.8274 26.1711 5.1458 26.1711 5.53872V10.5611h14.0436C23.6506 10.5611 23.3322 10.8795 23.3322 11.2724V15.2043L19.9539 14.0783V8.0817C19.9539 7.68879 19.6354 7.37039 19.2424 7.37039H17.1149V2.34803C17.1149 1.95512 16.7964 1.63672 16.4035 1.63672C16.0105 1.63672 15.692 1.95511 15.692 2.34803V7.37039H13.5645C13.1715 7.37039 12.853 7.68878 12.853 8.0817V15.4834L9.47339 18.0902V15.8601C9.47339 15.4672 9.15493 15.1488 8.76194 15.1488L6.63442 15.1474V10.125C6.63442 9.73214 6.31597 9.41373 5.92298 9.41373C5.52999 9.41373 5.21154 9.73213 5.21154 10.125V15.1474h2.08537C2.69239 15.1474 2.37393 15.4658 2.37393 15.8587V21.0139H1.36574C0.972759 21.0139 0.654297 21.3323 0.654297 21.7252C0.654297 22.1181 0.972749 22.4365 1.36574 22.4365h1.37393V27.5917C2.37393 27.9846 2.69238 28.3031 3.08537 28.3031H5.21289V33.3254C5.21289 33.7183 5.53134 34.0367 5.92433 34.0367C6.31731 34.0367 6.63577 33.7183 6.63577 33.3254V28.3031H8.7633C9.15628 28.3031 9.47474 27.9847 9.47474 27.5917L9.47338 19.8851L12.853 17.2784V19.8133C12.853 20.2062 13.1715 20.5246 13.5645 20.5246H15.692V25.547C15.692 25.9399 16.0105 26.2583 16.4034 26.2583C16.7964 26.2583 17.1149 25.9399 17.1149 25.547V20.5246H19.2424C19.6354 20.5246 19.9539 20.2063 19.9539 19.8133V15.5766L23.3335 16.7038V23.004C23.3335 23.3969 23.652 23.7153 24.045 23.7153h16.1725V28.7377C26.1725 29.1306 26.4909 29.449 26.8839 29.449C27.2769 29.449 27.5954 29.1306 27.5954 28.7377V23.7153h19.7229C30.1159 23.7153 30.4343 23.3969 30.4343 23.004V17.8488h22.9169L31.9696 18.7959C31.6918 19.0736 31.6918 19.5234 31.9696 19.8012C32.1079 19.9394 32.2908 20.0098 32.4724 20.0098C32.654 20.0098 32.8369 19.9407 32.9751 19.8012L35.1297 17.6469C35.1663 17.6117 35.1989 17.5724 35.2273 17.529C35.2287 17.5277 35.23 17.525 35.23 17.5236C35.2409 17.506 35.2517 17.4884 35.2625 17.4694C35.2653 17.4654 35.2666 17.4613 35.268 17.4572C35.2761 17.441 35.2842 17.4247 35.291 17.4071C35.2937 17.4017 35.2951 17.3963 35.2964 17.3909C35.3032 17.3746 35.3086 17.3583 35.314 17.3421C35.3154 17.3367 35.3167 17.3299 35.3195 17.3231C35.3235 17.3069 35.3276 17.2906 35.3317 17.2743C35.333 17.2662 35.3344 17.2581 35.3357 17.2486C35.3384 17.235 35.3411 17.2201 35.3425 17.2066C35.3452 17.1863 35.3452 17.1646 35.3452 17.1443V17.1375C35.3452 17.1158 35.3439 17.0914 35.3411 17.0684L35.3412 17.0688ZM3.79675 26.8807V22.4369H5.92428C6.08147 22.4369 6.2346 22.3854 6.35927 22.2892L8.0518 20.9845V26.8809L3.79675 26.8807ZM5.68037 21.0142h2.79675V16.5703H8.05055V19.1866L5.68037 21.0142ZM14.2757 19.1038V16.1827L16.5374 14.439L18.5308 15.1042V19.1037L14.2757 19.1038ZM16.6282 12.9688C16.4032 12.8942 16.1566 12.9362 15.9683 13.0799L14.2757 14.3846V8.79167H18.5295V13.6014L16.6282 12.9688ZM24.7563 22.2944V17.1798L26.6589 17.8139C26.732 17.8383 26.8079 17.8505 26.8838 17.8505h19.0113V22.2943L24.7563 22.2944ZM26.999 16.4279L24.7563 15.68V11.984h19.0101V16.4278L26.999 16.4279Z" fill="#F5C448"/>
</svg>
