<svg width="36" height="36" viewBox="0 0 36 36" fill="none" xmlns="http://www.w3.org/2000/svg">
<path d="M29.9895 8.28658C29.9448 8.06411 29.7249 7.9193 29.5015 7.96405C25.9073 8.70801 20.8324 8.16887 18.3492 4.19725C18.3222 4.15252 18.2857 4.1125 18.2434 4.08307C18.06 3.94417 17.8013 3.98419 17.6649 4.16782C14.7395 8.1088 8.86667 8.59155 6.51617 7.96747C6.48442 7.95805 6.44915 7.95217 6.4127 7.95217C6.18695 7.95217 6 8.13933 6 8.36769V13.5987C6 21.3008 10.4069 28.5331 17.7871 32.9423C17.853 32.9788 17.9259 33 18.0011 33C18.0764 33 18.1481 32.9788 18.2092 32.9459C25.5931 28.5375 30 21.3052 30 13.6023L29.9988 8.37122C29.9988 8.34062 29.9965 8.31365 29.9895 8.28658ZM29.1747 13.599C29.1747 20.9337 25.0031 27.8339 18.0013 32.1009C10.9994 27.8339 6.82787 20.9334 6.82787 13.599V8.87993C9.56038 9.36844 14.8974 8.75633 17.9742 5.11313C20.6503 8.83864 25.5109 9.48955 29.1747 8.86577V13.599ZM17.6157 7.74386C14.3375 10.3171 10.4224 10.6608 8.89032 10.6878C8.66457 10.6914 8.48349 10.875 8.48349 11.101V13.5989C8.48349 19.979 11.8697 25.948 17.7699 29.9797C17.8358 30.0279 17.9169 30.0515 18.0016 30.0515C18.0862 30.0515 18.1673 30.0279 18.2308 29.9797C24.1331 25.948 27.5173 19.9777 27.5173 13.5989V11.1434C27.5173 11.0316 27.4726 10.9268 27.3938 10.848C27.315 10.7691 27.2069 10.7244 27.0963 10.7302C26.9635 10.7361 26.8318 10.7361 26.6989 10.7361C23.2949 10.7361 20.3415 9.70496 18.1475 7.75918C17.9982 7.62734 17.7725 7.62028 17.6161 7.74388L17.6157 7.74386ZM26.6914 13.599C26.6914 19.6141 23.5273 25.2643 18.0013 29.1336C12.4752 25.2619 9.31112 19.6141 9.31112 13.599V11.5014C11.0865 11.4201 14.702 10.9434 17.8532 8.59974C20.1683 10.5373 23.2137 11.5614 26.6902 11.5614L26.6914 13.599ZM16.3494 20.2322L21.644 14.9351C21.8098 14.7751 22.072 14.7809 22.2283 14.9446C22.3824 15.1046 22.3824 15.3601 22.2283 15.5202L16.6376 21.1149C16.5588 21.1938 16.4565 21.235 16.346 21.2327C16.2378 21.2327 16.132 21.1903 16.0544 21.1126L13.7792 18.8348C13.6287 18.6606 13.6499 18.4005 13.8239 18.2498C13.9803 18.1144 14.2096 18.1168 14.366 18.2498L16.3494 20.2322Z" fill="#F5C448" stroke="#F5C448" stroke-width="0.6"/>
</svg>
